<?xml version="1.0" encoding="UTF-8"?>
<svg width="500px" height="500px" viewBox="0 0 500 500" version="1.1" xmlns="http://www.w3.org/2000/svg" xmlns:xlink="http://www.w3.org/1999/xlink">
    <!-- Generator: Sketch 52.5 (67469) - http://www.bohemiancoding.com/sketch -->
    <title>Group</title>
    <desc>Created with Sketch.</desc>
    <g id="Page-1" stroke="none" stroke-width="1" fill="none" fill-rule="evenodd">
        <g id="Artboard">
            <g id="Group">
                <rect id="bg-rect" fill="#FFFFFF" x="0" y="0" width="500" height="500"></rect>
                <g id="logo" transform="translate(66.000000, 32.000000)" fill="#00004B">
                    <path d="M162.46,267 C197.126667,267 214.46,250.666667 214.46,218 C214.46,185.333333 197.126667,169 162.46,169 L162.46,218 L162.46,267 Z" id="hole"></path>
                    <path d="M0,0 L0,436.924987 L71.1523438,436.921875 C87.8203125,436.992279 121.455729,435.867976 172.058594,433.548966 C247.962891,430.07045 307.865234,380.330216 335.705078,333.740372 C363.544922,287.150529 369.998047,255.206099 369.998047,218.462493 C369.998047,181.718888 362.566406,143.94545 346.650391,115.498185 C330.734375,87.0509192 314.058396,65.1012205 271.896484,36.5724036 C243.788543,17.5531922 207.309376,6.02905773 162.458984,2 L162.458984,92.7032629 C196.00792,97.275316 222.634737,109.363636 242.339436,128.968224 C271.896484,158.375105 279.707071,184.368484 279.707071,218.462493 C279.707071,252.556503 279.707071,276.964646 242.339436,312.118266 C217.42768,335.554012 167.698649,345.994454 93.1523438,343.439591 L93.1523438,0 L0,0 Z" id="D"></path>
                </g>
            </g>
        </g>
    </g>
</svg>